<svg width="24" height="20" viewBox="0 0 24 20" fill="none" xmlns="http://www.w3.org/2000/svg">
<path d="M4.11421 13.0908C4.48934 13.4162 5.0974 13.4161 5.4724 13.0906C5.8474 12.7651 5.84731 12.2375 5.47218 11.9121L3.26841 10.0006L6.59979 7.11006C8.61065 5.36528 11.4653 4.65437 14.1971 5.1538C14.7161 5.24868 15.2255 4.96053 15.3348 4.51019C15.4442 4.05986 15.1121 3.61788 14.5931 3.523C11.2325 2.90865 7.71637 3.78424 5.24155 5.93159L1.23099 9.41146C0.855901 9.73692 0.855946 10.2646 1.23113 10.59L4.11421 13.0908Z" fill="#132537"/>
<path d="M23.7185 9.41048L20.8355 6.90975C20.4603 6.58437 19.8523 6.58445 19.4773 6.90995C19.1023 7.23544 19.1024 7.76304 19.4775 8.08842L21.6813 9.99992L18.3499 12.8905C16.339 14.6353 13.4844 15.3462 10.7526 14.8467C10.2335 14.7519 9.72417 15.04 9.61482 15.4903C9.50547 15.9407 9.83757 16.3827 10.3566 16.4775C13.7172 17.0919 17.2333 16.2163 19.7081 14.069L23.7187 10.5891C24.0938 10.2636 24.0937 9.73586 23.7185 9.41048Z" fill="#132537"/>
<path d="M7.67285 10.0002C7.67285 10.4605 8.10282 10.8335 8.63322 10.8335C9.16362 10.8335 9.59359 10.4605 9.59359 10.0002C9.59359 8.6197 10.8837 7.50032 12.4747 7.50032C13.0051 7.50032 13.4351 7.12725 13.4351 6.66703C13.4351 6.20681 13.0051 5.83374 12.4747 5.83374C9.82286 5.8337 7.67285 7.69922 7.67285 10.0002Z" fill="#132537"/>
<path d="M15.3559 10.0002C15.3559 11.3807 14.0658 12.5001 12.4748 12.5001C11.9444 12.5001 11.5144 12.8732 11.5144 13.3334C11.5144 13.7936 11.9444 14.1667 12.4748 14.1667C15.1266 14.1667 17.2767 12.3012 17.2767 10.0002C17.2767 9.53994 16.8467 9.16687 16.3163 9.16687C15.7859 9.16687 15.3559 9.53998 15.3559 10.0002Z" fill="#132537"/>
<path d="M23.7173 0.244064C23.3423 -0.0813546 22.7342 -0.0813546 22.3592 0.244064L1.23075 18.5768C0.855702 18.9022 0.855702 19.4298 1.23075 19.7552C1.60579 20.0806 2.21389 20.0806 2.58894 19.7552L23.7173 1.42254C24.0924 1.09712 24.0924 0.569482 23.7173 0.244064Z" fill="#132537"/>
</svg>
