<svg width="25" height="24" viewBox="0 0 25 24" fill="none" xmlns="http://www.w3.org/2000/svg">
<path d="M0.5 12C0.5 5.37258 5.87258 0 12.5 0C19.1274 0 24.5 5.37258 24.5 12C24.5 18.6274 19.1274 24 12.5 24C5.87258 24 0.5 18.6274 0.5 12Z" fill="#5D5FEF"/>
<path d="M14 5.5L6.95321 12.5468C6.72845 12.7716 6.61607 12.8839 6.54454 13.0229C6.47301 13.1619 6.44689 13.3187 6.39463 13.6322L5.61508 18.3095C5.56262 18.6243 5.53639 18.7817 5.62736 18.8726C5.71833 18.9636 5.87571 18.9374 6.19048 18.8849L10.8678 18.1054L10.8678 18.1054C11.1813 18.0531 11.3381 18.027 11.4771 17.9555C11.6161 17.8839 11.7284 17.7716 11.9532 17.5468L11.9532 17.5468L19 10.5C20.0171 9.48295 20.5256 8.97442 20.6384 8.36277C20.6826 8.12295 20.6826 7.87705 20.6384 7.63723C20.5256 7.02558 20.0171 6.51705 19 5.5C17.9829 4.48295 17.4744 3.97442 16.8628 3.8616C16.6229 3.81737 16.3771 3.81737 16.1372 3.8616C15.5256 3.97442 15.0171 4.48294 14 5.5Z" fill="#ECF3FF"/>
<path d="M12.7929 6.70711L6.95321 12.5468C6.72845 12.7716 6.61607 12.8839 6.54454 13.0229C6.47301 13.1619 6.44689 13.3187 6.39463 13.6322L5.61508 18.3095C5.56262 18.6243 5.53639 18.7817 5.62736 18.8726C5.71833 18.9636 5.87571 18.9374 6.19048 18.8849L10.8678 18.1054L10.8678 18.1054C11.1813 18.0531 11.3381 18.027 11.4771 17.9555C11.6161 17.8839 11.7284 17.7716 11.9532 17.5468L11.9532 17.5468L17.7929 11.7071C18.1262 11.3738 18.2929 11.2071 18.2929 11C18.2929 10.7929 18.1262 10.6262 17.7929 10.2929L17.7929 10.2929L14.2071 6.70711C13.8738 6.37377 13.7071 6.20711 13.5 6.20711C13.2929 6.20711 13.1262 6.37377 12.7929 6.70711Z" fill="white"/>
</svg>
